<?xml version="1.0" encoding="UTF-8"?>
<svg width="44px" height="43px" viewBox="0 0 44 43" version="1.1" xmlns="http://www.w3.org/2000/svg" xmlns:xlink="http://www.w3.org/1999/xlink">
    <!-- Generator: Sketch 54.1 (76490) - https://sketchapp.com -->
    <title>Touch ID</title>
    <desc>Created with Sketch.</desc>
    <g id="final" stroke="none" stroke-width="1" fill="none" fill-rule="evenodd" stroke-linecap="round">
        <g id="touch_id" transform="translate(-166.000000, -303.000000)" stroke="#FB7B7B">
            <g id="Alert" transform="translate(52.000000, 283.000000)">
                <g id="Touch-ID" transform="translate(115.000000, 21.000000)">
                    <path d="M41.529553,16.8291022 C39.2403963,5.47578134 28.1823291,-1.87139776 16.8294784,0.417758955 M13.7870635,1.27106965 C4.19955699,4.75464722 -1.6596521,14.8153176 0.417821642,25.1187739 M41.9464689,20.2850468 C41.9075881,19.1414635 41.7744156,17.9857504 41.5408209,16.8270022 M0.429152239,25.1167052 C0.489958209,25.4177575 0.556719403,25.7159888 0.629749254,26.0113993" id="Stroke-1"></path>
                    <path d="M15.560091,41.2353806 C16.3701687,40.3133724 17.107065,39.3303122 17.7641624,38.2961384 M18.6846554,36.7162013 C21.1628689,32.059125 22.1033803,26.5476116 20.9793448,20.9728881" id="Stroke-7"></path>
                    <path d="M18.4957657,41.8004216 C20.6738479,39.0132472 22.2852095,35.7962618 23.2010154,32.3428386 M23.7082404,30.0008647 C24.2281497,26.9222664 24.2031256,23.6981986 23.5490866,20.4548619 C23.2695045,19.0256082 21.8799,18.1020784 20.4531537,18.3898097 C19.0267209,18.677541 18.1033478,20.0671455 18.3910791,21.4940485 C19.8342806,28.5564739 17.5286687,35.5081007 12.8492731,40.3067575" id="Stroke-9"></path>
                    <path d="M21.6437127,41.9340224 C22.5637177,40.5895774 23.370434,39.1680336 24.0534332,37.6850306 M24.7296624,36.0931651 C26.6680897,31.1218541 27.2516766,25.5556113 26.11875,19.9368358 C25.5511231,17.0899254 22.7802201,15.2486642 19.9355037,15.822403 M18.128729,16.5541265 C16.3640712,17.6909941 15.3833327,19.8297089 15.8234216,22.0117612 C16.7586885,26.5649661 15.9048728,31.0668228 13.7535088,34.8006284 M12.8509519,36.2145753 C12.1261356,37.2439047 11.2957768,38.1997286 10.3717276,39.0642313" id="Stroke-11"></path>
                    <path d="M24.9872575,41.5541731 C28.7653769,35.1135985 30.2805112,27.3138224 28.6884291,19.418606 L28.6921903,19.4170388 C27.8326007,15.1541955 23.680556,12.3953597 19.4178694,13.2549493 C15.1550261,14.1145388 12.3961903,18.2665836 13.2559366,22.5295836 L13.2703545,22.5270761 C14.4328769,28.2931433 12.2841381,33.9578149 8.13350373,37.5525761" id="Stroke-13"></path>
                    <path d="M28.4972978,40.5488216 C31.6582679,34.0602918 32.7947754,26.5216052 31.2581709,18.9006425 C30.114141,13.2184187 24.5809545,9.54200821 18.9002978,10.6874485 C13.2193276,11.8330455 9.54276045,17.3663888 10.6882007,23.0475157 C11.694947,27.9770306 9.78159627,32.8187843 6.14264104,35.7993739" id="Stroke-15"></path>
                    <path d="M4.40522015,33.8320657 C7.1107003,31.658607 8.65168205,28.2107102 8.28673157,24.5959889 M7.93041677,22.3207601 C7.23606782,15.67486 11.6993594,9.46766674 18.382444,8.12007313 C22.4800616,7.29380122 26.5162201,8.47520942 29.4719142,10.9871813 M30.9578132,12.4699515 C32.3570717,14.1099291 33.3707493,16.1185943 33.8271604,18.3818642 C34.4850933,21.6431866 34.6883256,24.8903998 34.480822,28.0581801 M34.3264559,29.7840718 C33.9758164,32.8739199 33.234383,35.8751184 32.1441828,38.7252224" id="Stroke-17"></path>
                    <path d="M35.859459,35.7452597 C36.9691771,31.582895 37.4063857,27.1911657 37.068842,22.7202602 M36.8177414,20.3507098 C36.7047755,19.5234616 36.5649487,18.6944272 36.3976231,17.8645433 C34.677347,9.34716269 26.3815634,3.83544627 17.8648097,5.55258806 M15.3048879,6.29660991 C8.27746886,9.00142493 4.01466604,16.4535321 5.55301119,24.0832075 C6.14900373,26.9973493 5.04462313,29.8611851 2.92487687,31.6573119" id="Stroke-19"></path>
                    <path d="M39.4827582,30.8304291 C39.7308404,28.8377137 39.8370016,26.8117082 39.7923246,24.7652866 M39.6417418,22.0161178 C39.5056806,20.4660119 39.2821353,18.9076136 38.9673179,17.3463918 C38.4704614,14.8887045 37.5043213,12.6455381 36.181086,10.691484 M34.4451993,8.50763305 C30.2415029,3.97543294 23.8495652,1.67413186 17.347191,2.98521269 C11.2249779,4.21965991 6.43386738,8.36796579 4.12678277,13.6949519 M3.18924103,16.4343109 C2.52586286,19.0256503 2.42122817,21.8030722 2.98538507,24.6009515 C3.33909403,26.3234216 2.7995194,28.0194067 1.68871343,29.2178172" id="Stroke-21"></path>
                </g>
            </g>
        </g>
    </g>
</svg>